<svg version="1.1" id="_x32_" xmlns="http://www.w3.org/2000/svg" xmlns:xlink="http://www.w3.org/1999/xlink" x="0px" y="0px" width="512px" height="512px" viewBox="0 0 512 512" xml:space="preserve">
<g>
	<polygon points="246.781,303.031 265.234,303.031 265.234,280.875 294.969,280.875 294.969,278.688 294.969,264.781
		294.969,264.734 265.234,264.734 265.234,258.156 270.203,249.5 294.969,249.5 294.969,246.281 294.969,236.469 294.969,233.25
		278.594,233.25 292.203,205.813 290.125,205.813 276.563,205.813 274.469,205.813 256,240.797 237.531,205.813 235.438,205.813
		221.875,205.813 219.813,205.813 233.422,233.25 217.031,233.25 217.031,236.469 217.031,246.281 217.031,249.5 241.813,249.5
		246.781,258.172 246.781,264.734 217.031,264.734 217.031,264.781 217.031,278.688 217.031,280.875 246.781,280.875 	" style="fill: #fff;"></polygon>
	<path d="M0,116v280h512v-8V116H0z M496,380H16V132h480V380z" style="fill: #fff;"></path>
	<path d="M80.578,357.281h350.844c4.984-20.375,21.453-36.219,42.172-40.234V194.953
		c-20.719-4.031-37.188-19.875-42.172-40.234H80.578c-4.984,20.359-21.453,36.203-42.172,40.234v122.094
		C59.125,321.063,75.594,336.906,80.578,357.281z M400.344,235.984c11.031,0,20,8.953,20,20s-8.969,20-20,20
		c-11.063,0-20-8.953-20-20S389.281,235.984,400.344,235.984z M256,171.656c46.594,0,84.344,37.766,84.344,84.328
		c0,46.594-37.75,84.359-84.344,84.359c-46.563,0-84.344-37.766-84.344-84.359C171.656,209.422,209.438,171.656,256,171.656z
		 M111.656,235.984c11.063,0,20,8.953,20,20s-8.938,20-20,20c-11.031,0-20-8.953-20-20S100.625,235.984,111.656,235.984z" style="fill: #fff;"></path>
</g>
</svg>
